<svg width="81" height="71" viewBox="0 0 81 71" fill="none" xmlns="http://www.w3.org/2000/svg">
<path d="M23.4398 11.683C23.4398 11.683 29.5208 15.737 29.5208 17.3586C29.5208 18.9803 18.1695 15.3316 18.1695 16.5478C18.1695 17.764 29.5208 26.2775 29.5208 27.0884C29.5208 27.8992 12.1901 23.2037 10.4668 25.0613C8.74343 26.9189 30.737 33.9803 30.737 35.6019C30.737 37.2235 6.00732 30.737 6.41272 31.9532C6.81813 33.1694 31.1425 39.5689 31.1425 41.596C31.1425 43.623 13.6083 39.4819 10.4668 41.596C7.32528 43.71 29.0137 47.1892 29.0137 48.8108C29.0137 50.4324 24.656 48.9803 21.8181 49.7911C18.9803 50.6019 15.3316 53.0343 23.0343 53.8451C30.737 54.6559 30.3316 58.71 30.3316 58.71" stroke="url(#paint0_linear_4_61)" stroke-width="6" stroke-linecap="round"/>
<path d="M78 32.5122C78 32.5122 40.2973 36.9716 33.8108 32.5122C27.3243 28.0527 38.2703 -0.325701 30.973 3.32295C23.6757 6.9716 3 26.8365 3 32.5122C3 38.1879 30.1622 68.5932 33.8108 67.7824C37.4595 66.9717 31.5478 40.8721 35.1965 38.8451" stroke="black" stroke-width="5" stroke-linecap="round"/>
<defs>
<linearGradient id="paint0_linear_4_61" x1="35.0271" y1="52.8649" x2="3.00004" y2="21.6486" gradientUnits="userSpaceOnUse">
<stop stop-color="#DB4EA3"/>
<stop offset="1" stop-color="#4482DE"/>
</linearGradient>
</defs>
</svg>
