<svg width="1280" height="240" viewBox="0 0 1280 240" fill="none" xmlns="http://www.w3.org/2000/svg">
<g clip-path="url(#clip0_29_48)">
<path d="M81.187 118.945H-23.5V240H1285V96.5174H251.775C244.581 96.5174 239.443 118.945 235.332 118.945C231.222 118.945 239.443 66.9532 235.332 67.9727C231.222 68.9921 229.68 93.459 225.056 96.5174C220.432 99.5757 163.398 96.5174 151.066 96.5174C138.735 96.5174 131.541 151.058 124.348 147.49C117.154 143.922 131.027 17 124.348 17C117.668 17 93.5186 118.945 81.187 118.945Z" fill="url(#paint0_linear_29_48)"/>
<path d="M-26.5 110.033C-26.5 110.033 67.1182 110.033 79.469 110.033C91.8198 110.033 109.187 8.00008 120.543 8C131.898 7.99992 113.338 132.252 120.543 135.824C127.747 139.395 134.092 87.5858 146.443 87.5858C158.794 87.5858 216.776 90.6468 221.408 87.5858C226.039 84.5248 233.291 56.9541 237.408 55.9338C241.525 54.9135 236.908 113.355 243.405 113.355C249.903 113.355 256.193 87.5858 263.397 87.5858C266.538 87.5858 460.434 87.5858 691.731 87.5858C707.789 87.5858 708.724 65.92 715.721 55.9338C722.719 45.9476 707.225 127.835 712.223 114.852C717.221 101.87 722.719 87.5858 735.214 87.5858C1000.02 87.5858 1285 87.5858 1285 87.5858" stroke="white" stroke-width="4" stroke-linecap="round"/>
</g>
<defs>
<linearGradient id="paint0_linear_29_48" x1="658.719" y1="17" x2="661" y2="240" gradientUnits="userSpaceOnUse">
<stop stop-color="white" stop-opacity="0.6"/>
<stop offset="0.5625" stop-color="white" stop-opacity="0.95"/>
<stop offset="0.921875" stop-color="white"/>
</linearGradient>
<clipPath id="clip0_29_48">
<rect width="1280" height="240" fill="white"/>
</clipPath>
</defs>
</svg>
